<svg xmlns="http://www.w3.org/2000/svg" viewBox="0 0 630 880" width="630" height="880">
<defs>
  <linearGradient id="parch" x1="0" y1="0" x2="0" y2="1">
    <stop offset="0" stop-color="#eadfc4"/><stop offset="1" stop-color="#c9b38a"/>
  </linearGradient>
  <radialGradient id="vig" cx=".5" cy=".42" r=".75">
    <stop offset=".55" stop-color="#000" stop-opacity="0"/><stop offset="1" stop-color="#3a2410" stop-opacity=".55"/>
  </radialGradient>
  <radialGradient id="halo" cx=".5" cy=".5" r=".5">
    <stop offset="0" stop-color="#b8892e" stop-opacity=".55"/><stop offset="1" stop-color="#b8892e" stop-opacity="0"/>
  </radialGradient>
  <pattern id="hatch" width="7" height="7" patternUnits="userSpaceOnUse" patternTransform="rotate(35)">
    <line x1="0" y1="0" x2="0" y2="7" stroke="#2a1d12" stroke-width="1.6"/>
  </pattern>
  <filter id="grain"><feTurbulence type="fractalNoise" baseFrequency=".9" numOctaves="2" seed="7"/>
    <feColorMatrix values="0 0 0 0 .2  0 0 0 0 .13  0 0 0 0 .05  0 0 0 .16 0"/></filter>
</defs>
<rect width="630" height="880" fill="url(#parch)"/>
<rect width="630" height="880" filter="url(#grain)"/>
<circle cx="315" cy="300" r="230" fill="url(#halo)"/>

<path d="M180 540 Q200 470 230 520 Q250 450 280 530 Q300 470 330 535 Q350 460 380 530 Q400 470 430 540Z" fill="#8e2a1e" opacity=".85"/>
<path d="M230 540 Q250 500 270 535 Q290 495 315 538 Q340 500 360 536Z" fill="#b8892e"/>
<path d="M200 500 Q160 420 260 400 Q380 380 370 320 Q360 260 280 270 Q220 280 240 220 Q260 170 330 170" stroke="#2a1d12" stroke-width="46" fill="none" stroke-linecap="round"/>
<path d="M200 500 Q160 420 260 400 Q380 380 370 320 Q360 260 280 270 Q220 280 240 220 Q260 170 330 170" stroke="#b8892e" stroke-width="6" fill="none" stroke-dasharray="4 14"/>
<path d="M318 148 Q372 136 404 164 Q382 194 326 194Z" fill="#2a1d12"/>
<circle cx="372" cy="160" r="5" fill="#8e2a1e"/>
<path d="M402 168 L432 172 L444 162 M432 172 L444 182" stroke="#8e2a1e" stroke-width="3" fill="none"/>
<path d="M0 560 Q160 520 315 545 Q470 570 630 530 V880 H0Z" fill="url(#hatch)" opacity=".55"/>
<rect width="630" height="880" fill="url(#vig)"/>
<rect x="24" y="24" width="582" height="832" rx="16" fill="none" stroke="#2a1d12" stroke-width="4"/>
<rect x="36" y="36" width="558" height="808" rx="12" fill="none" stroke="#b8892e" stroke-width="3"/>
<g fill="#b8892e" stroke="#2a1d12" stroke-width="2">
  <path d="M36 70 L70 36 L80 46 L46 80Z"/><path d="M594 70 L560 36 L550 46 L584 80Z"/>
  <path d="M36 810 L70 844 L80 834 L46 800Z"/><path d="M594 810 L560 844 L550 834 L584 800Z"/>
</g>
</svg>
